<?xml version="1.0" encoding="utf-8"?>
<!-- Generator: Adobe Illustrator 26.0.3, SVG Export Plug-In . SVG Version: 6.00 Build 0)  -->
<svg version="1.1" id="Layer_1" xmlns="http://www.w3.org/2000/svg" xmlns:xlink="http://www.w3.org/1999/xlink" x="0px" y="0px"
	 viewBox="0 0 1280 2048" style="enable-background:new 0 0 1280 2048;" xml:space="preserve">
<style type="text/css">
	.st0{fill:#E8E8E8;}
	.st1{fill:#013E68;}
</style>
<image style="overflow:visible;" width="512" height="512" xlink:href="coffeesquirrel.png"  transform="matrix(1 0 0 1 383.8045 767.4135)">
</image>
<path class="st0" d="M505.1,943.7l-14.9-40.5c-0.2-0.5,0.1-1.1,0.6-1.3l34.8-12.8c1.6-0.6,3.3,0.2,3.9,1.8l13.2,35.8
	c1,2.6-0.4,5.5-3,6.4l-32,11.8C506.7,945.2,505.5,944.7,505.1,943.7z"/>
<path class="st1" d="M533.2,901c2.4,6.4,2.6,11,1.5,12.8c-1.3,2.2-4.4,0.5-7.4-6.5c-1.6-3.6-3.1-4.9-4.3-4.9
	c-5-0.1-4.8,12.1-4.4,17.6c-8.4-22.1-27.2-21.8-15.6,6.3c1,2.4,3.6,6.5,3,6.9c-0.6,0.4-7.8-9.8-11.8-15.2
	c1.6,4.4,7.1,13.8,11.6,19.2c4.4,5.3,8.1,6.4,4.9-1.9c-1.6-4.3-8.9-20.6-4.9-21.1c5.8-0.7,11.4,9.6,15.8,14.7
	c-0.1-20.2,0-24.9,10.5-4.6c2.3,5.6,5.4-6.8,3.7-16.4C535.4,906,534.4,903.4,533.2,901"/>
</svg>
